<?xml version="1.0" encoding="UTF-8"?>
<svg id="Layer_1" data-name="Layer 1" xmlns="http://www.w3.org/2000/svg" viewBox="0 0 268.24 80">
  <rect x="172.33" y="64.03" width="86.16" height="14.57" fill="#fff"/>
  <path d="M35.31,43.55c-1.78.93-3.96,1.67-6.55,2.23-2.59.56-5.37.83-8.32.83-3.12,0-5.94-.3-8.45-.87-2.51-.58-4.65-1.71-6.42-3.39-1.77-1.67-3.14-4.03-4.11-7.08-.97-3.05-1.45-7.03-1.45-11.96s.48-8.92,1.45-11.97c.97-3.05,2.34-5.41,4.11-7.08,1.77-1.67,3.91-2.81,6.42-3.38,2.51-.58,5.33-.88,8.45-.88,5.9,0,10.65.93,14.23,2.8l-2.08,3.69c-1.23-.46-2.89-1-5-1.6-2.1-.61-4.45-.91-7.02-.91-2.27,0-4.39.18-6.33.52-1.94.35-3.62,1.18-5.02,2.48-1.42,1.3-2.53,3.24-3.33,5.82-.8,2.59-1.2,6.08-1.2,10.51s.4,7.99,1.2,10.57c.8,2.58,1.91,4.51,3.33,5.79,1.41,1.28,3.08,2.08,5.02,2.44,1.94.35,4.05.53,6.33.53,1.26,0,2.53-.12,3.8-.32,1.26-.21,2.44-.46,3.54-.73,1.1-.28,2.11-.59,3.04-.91.92-.33,1.68-.61,2.27-.84l2.09,3.71Z" fill="#fff"/>
  <polygon points="43.37 45.74 43.37 .87 47.91 .87 47.91 41.69 72.36 41.69 71.71 45.74 43.37 45.74" fill="#fff"/>
  <path d="M106.44,22.83h-13.81c-1.76,0-3.38.1-4.85.31-1.47.21-2.73.65-3.78,1.32-1.05.67-1.87,1.65-2.46,2.93-.59,1.28-.88,3.01-.88,5.2s.29,3.92.88,5.2c.59,1.28,1.42,2.26,2.49,2.94,1.07.67,2.34,1.11,3.81,1.32,1.47.21,3.09.31,4.85.31,2.98,0,5.38-.42,7.18-1.25,1.81-.83,3.19-2.08,4.16-3.73.97-1.65,1.61-3.67,1.92-6.07.31-2.4.47-5.18.47-8.34v-.14ZM114.19,45.79c-2.1-.33-3.66-1-4.66-2.03-1.01-1.02-1.68-2.68-2.02-4.96-1.47,2.47-3.43,4.35-5.89,5.65-2.45,1.31-5.45,1.96-8.98,1.96-2.39,0-4.59-.21-6.58-.62-2-.42-3.7-1.16-5.14-2.2-1.43-1.05-2.54-2.46-3.34-4.26-.79-1.79-1.2-4.03-1.2-6.74s.4-4.94,1.2-6.73c.8-1.8,1.92-3.21,3.34-4.26,1.43-1.05,3.14-1.78,5.14-2.2,1.99-.42,4.19-.63,6.58-.63h13.74c-.12-3.45-.44-6.16-.94-8.13-.5-1.97-1.27-3.46-2.29-4.43-1.04-.98-2.36-1.6-3.97-1.86-1.62-.25-3.63-.38-6.02-.38-1.26,0-2.5.09-3.72.28-1.22.18-2.36.42-3.43.69-1.07.28-2.05.58-2.93.87-.88.31-1.61.57-2.2.81l-2.08-3.7c1.77-.93,3.88-1.64,6.36-2.16,2.48-.51,5.19-.77,8.13-.77,3.4,0,6.25.29,8.54.84,2.29.56,4.12,1.66,5.49,3.28,1.36,1.63,2.34,3.95,2.92,6.98.59,3.02.88,7,.88,11.94v8.92c0,1.77.08,3.25.22,4.44.15,1.19.37,2.16.66,2.92.29.77.69,1.37,1.17,1.78.48.42,1.06.73,1.73.91l-.69,3.77Z" fill="#fff"/>
  <path d="M139.63,25.61c1.98,0,3.67-.08,5.06-.24,1.4-.17,2.52-.58,3.38-1.26.86-.68,1.5-1.7,1.9-3.08.4-1.37.6-3.29.6-5.76s-.2-4.55-.6-5.94c-.4-1.4-1.04-2.42-1.9-3.08-.86-.65-1.99-1.05-3.38-1.19-1.39-.14-3.07-.2-5.06-.2h-11.95s0,20.74,0,20.74h11.95ZM158.16,45.74c-1.05.19-2.03.24-2.94.17-.91-.08-1.81-.36-2.69-.87-.89-.52-1.8-1.28-2.75-2.31-.95-1.02-2.01-2.42-3.19-4.19l-5.94-8.94h-12.97v16.14h-4.55V.87h16.38c2.99,0,5.5.18,7.52.53,2.03.35,3.65,1.04,4.87,2.06,1.22,1.02,2.1,2.48,2.63,4.37.53,1.89.79,4.36.79,7.44,0,2.47-.16,4.54-.48,6.22-.31,1.68-.84,3.05-1.58,4.11-.74,1.08-1.71,1.9-2.91,2.49-1.2.58-2.68.99-4.45,1.22l4.87,6.98c.97,1.4,1.81,2.5,2.53,3.28.71.8,1.38,1.39,1.99,1.78.61.4,1.2.63,1.77.71.57.06,1.17.06,1.81-.03l-.7,3.7Z" fill="#fff"/>
  <path d="M194.44,22.83h-13.8c-1.77,0-3.38.1-4.85.31-1.47.21-2.73.65-3.78,1.32-1.05.67-1.87,1.65-2.46,2.93-.59,1.28-.89,3.01-.89,5.2s.3,3.92.89,5.2c.59,1.28,1.42,2.26,2.49,2.94,1.07.67,2.35,1.11,3.82,1.32,1.47.21,3.09.31,4.85.31,2.97,0,5.38-.42,7.18-1.25,1.8-.83,3.19-2.08,4.16-3.73.96-1.65,1.6-3.67,1.93-6.07.31-2.4.46-5.18.46-8.34v-.14ZM202.19,45.79c-2.1-.33-3.65-1-4.66-2.03-1.01-1.02-1.68-2.68-2.02-4.96-1.47,2.47-3.43,4.35-5.89,5.65-2.46,1.31-5.45,1.96-8.98,1.96-2.39,0-4.59-.21-6.58-.62-2-.42-3.71-1.16-5.14-2.2-1.43-1.05-2.54-2.46-3.34-4.26-.8-1.79-1.2-4.03-1.2-6.73s.4-4.94,1.2-6.73c.8-1.8,1.91-3.21,3.34-4.26,1.43-1.05,3.14-1.78,5.14-2.2,1.99-.42,4.19-.63,6.58-.63h13.74c-.12-3.45-.44-6.16-.95-8.13-.5-1.97-1.27-3.46-2.31-4.43-1.02-.98-2.35-1.6-3.97-1.86-1.62-.25-3.62-.38-6.02-.38-1.26,0-2.5.09-3.72.28-1.22.18-2.36.42-3.44.69-1.07.28-2.05.58-2.93.87-.88.31-1.62.57-2.2.81l-2.08-3.7c1.76-.93,3.88-1.64,6.36-2.16,2.48-.51,5.19-.77,8.12-.77,3.41,0,6.25.29,8.55.84,2.28.56,4.11,1.66,5.48,3.28,1.36,1.63,2.34,3.95,2.92,6.98.59,3.02.88,7,.88,11.94v8.92c0,1.77.07,3.25.22,4.44.14,1.19.37,2.16.66,2.92.3.77.69,1.37,1.16,1.78.49.42,1.07.73,1.74.91l-.7,3.77Z" fill="#fff"/>
  <polygon points="205.57 46.53 205.57 27.77 207.68 27.77 207.68 44.84 219.05 44.84 218.75 46.53 205.57 46.53" fill="#fff"/>
  <rect x="221.75" y="34.7" width="2.85" height="11.83" fill="#fff"/>
  <polygon points="242.98 46.53 231.8 30.64 231.8 46.53 229.79 46.53 229.79 27.77 232.15 27.77 243.33 43.61 243.33 27.77 245.32 27.77 245.32 46.53 242.98 46.53" fill="#fff"/>
  <path d="M265.1,35.98c0-1.5-.24-2.7-.54-3.61-.3-.92-.73-1.62-1.26-2.12-.55-.5-1.2-.83-1.99-.98-.79-.16-1.71-.24-2.74-.24-.9,0-1.74.06-2.52.17-.79.1-1.48.38-2.06.82-.6.45-1.09,1.14-1.45,2.08-.38.93-.6,2.22-.68,3.88h13.25ZM266.42,45.41c-.41.2-.92.38-1.5.55-.6.17-1.23.33-1.9.47-.67.13-1.37.25-2.09.33-.72.09-1.43.14-2.1.14-1.47,0-2.77-.12-3.9-.35-1.13-.24-2.09-.7-2.87-1.39-.78-.7-1.37-1.66-1.79-2.89-.4-1.24-.61-2.86-.61-4.89s.22-3.8.67-5.1c.44-1.31,1.04-2.32,1.84-3.04.79-.72,1.73-1.21,2.81-1.46,1.09-.25,2.28-.38,3.59-.38,1.4,0,2.66.14,3.74.41,1.09.27,2,.76,2.74,1.48.74.7,1.31,1.67,1.7,2.9.39,1.22.58,2.8.58,4.73v.75h-15.5c0,1.62.17,2.91.44,3.89.27.98.71,1.75,1.29,2.29.59.54,1.36.91,2.28,1.09.94.18,2.08.28,3.43.28.59,0,1.19-.06,1.81-.16.61-.11,1.2-.24,1.76-.39.55-.14,1.06-.29,1.51-.45.46-.16.83-.29,1.11-.38l.97,1.55Z" fill="#fff"/>
  <path d="M219.1,9.05v.29c-2.62,4.79-2.38,10.82,0,15.84v1.73c-4.07-5.39-4.69-12.79,0-17.86M214.59,12.16c-5.83,5.76-1.65,11.84,4.51,16.65v-.57c-5.17-4.88-8.71-10.19-4.51-16.08M219.1,9.35c.14-.25.29-.51.44-.75-.15.16-.3.3-.44.46v.29ZM223.78,31.06v.02l-.1.07.1-.09ZM223.78,30.07c-.21.22-.43.45-.64.65.22-.15.43-.31.64-.47v-.19ZM223.78,7.05v17.66c-.24,2.26-.51,4.34-.73,6.01-1.54-1.07-2.87-2.37-3.95-3.8v-1.73c.97,2.06,2.31,3.95,3.95,5.53-1.58-5.61.21-18.09.63-24.06l.09.39ZM219.1,28.81c1.05.82,2.16,1.6,3.29,2.35-1.13-.96-2.25-1.93-3.29-2.91v.57ZM223.78,24.71c.62-5.87,1.06-13.02,0-17.65v17.65ZM223.78,30.25c6.58-5.04,9.86-15.91,3.9-21.77,3.82,6.09,1.11,16.18-3.9,21.58v.19ZM223.78,31.08v-.02c6.65-5.61,14.49-11.9,9.5-18.9,6.74,6.67-1.83,13.89-9.5,18.92" fill="#fff"/>
  <g>
    <path d="M242.98,67.34h-1.68v2.52h1.68c.79,0,1.33-.48,1.33-1.25s-.54-1.26-1.33-1.26Z" fill="#e1251b"/>
    <polygon points="196.68 71.8 198.97 71.8 197.84 68.45 196.68 71.8" fill="#e1251b"/>
    <path d="M161.52,60.79v19.21h106.72v-19.21h-106.72ZM192.62,74.93h-1.79v-5.36l-1.76,3.49h-1.21l-1.77-3.49v5.36h-1.8v-9.2h1.77l2.4,4.97,2.39-4.97h1.77v9.2ZM199.99,74.93l-.54-1.63h-3.27l-.55,1.63h-1.87l3.35-9.2h1.41l3.36,9.2h-1.87ZM208.34,74.93l-2.36-4.18-1.19,1.42v2.76h-1.79v-9.2h1.79v4l3.24-4h2.18l-3.05,3.66,3.27,5.54h-2.09ZM217.64,67.34h-4.26v2.16h3.63v1.6h-3.63v2.23h4.26v1.6h-6.06v-9.2h6.06v1.6ZM226.05,72.03h-3.98v-1.56h3.98v1.56ZM237.5,71.78c0,.97-.32,1.75-.97,2.34-.63.59-1.45.89-2.41.89s-1.77-.3-2.4-.88c-.66-.61-.98-1.38-.98-2.35v-6.04h1.8v5.98c0,1.02.57,1.69,1.59,1.69s1.6-.67,1.6-1.69v-5.98h1.78v6.04ZM245.24,70.69c-.58.53-1.3.79-2.17.79h-1.77v3.46h-1.79v-9.2h3.56c.87,0,1.59.26,2.17.79.58.53.87,1.22.87,2.08s-.28,1.55-.87,2.08Z" fill="#e1251b"/>
  </g>
  <g>
    <path d="M56.25,73.08c-.77.72-1.76,1.08-2.99,1.08h-3.57v5.53h-1.44v-13.45h5c1.23,0,2.21.34,2.99,1.04.77.73,1.17,1.7,1.17,2.91s-.4,2.17-1.17,2.89ZM53.13,67.53h-3.44v5.35h3.44c1.76,0,2.85-.94,2.85-2.68s-1.1-2.66-2.85-2.66Z" fill="#fff"/>
    <path d="M65.11,72.17c-.45-.45-.98-.68-1.6-.68-1.38,0-2.23,1.08-2.23,2.49v5.7h-1.36v-9.29h1.36v1.13c.55-.83,1.42-1.25,2.61-1.25.91,0,1.64.28,2.23.87l-1,1.02Z" fill="#fff"/>
    <path d="M73.76,78.37c-.66.96-1.64,1.43-2.96,1.43s-2.3-.47-2.97-1.43c-.55-.81-.83-1.93-.83-3.32s.28-2.51.83-3.32c.66-.96,1.64-1.43,2.97-1.43s2.3.47,2.96,1.43c.55.81.83,1.93.83,3.32s-.28,2.51-.83,3.32ZM70.79,71.49c-1.62,0-2.44,1.19-2.44,3.55s.81,3.55,2.44,3.55,2.44-1.19,2.44-3.55-.81-3.55-2.44-3.55Z" fill="#fff"/>
    <path d="M79.16,71.49v8.2h-1.36v-8.2h-1.19v-1.04h1.19v-1.76c0-1.49.87-2.49,2.36-2.49h.98v1.17h-.74c-.83,0-1.25.45-1.25,1.36v1.72h1.98v1.04h-1.98Z" fill="#fff"/>
    <path d="M83.48,75.4c0,.96.21,1.74.64,2.28.47.62,1.17.93,2.1.93s1.74-.36,2.44-1.06l.93.81c-1.06,1.06-1.95,1.43-3.4,1.43s-2.44-.45-3.13-1.38c-.62-.81-.93-1.92-.93-3.38,0-1.36.28-2.45.87-3.31.66-.96,1.64-1.45,2.95-1.45s2.25.45,2.91,1.34c.6.79.91,1.85.91,3.15v.62h-6.27ZM88.11,72.83c-.4-.93-1.11-1.4-2.17-1.4s-1.78.47-2.17,1.4c-.15.36-.25.89-.28,1.55h4.91c-.04-.66-.13-1.19-.28-1.55Z" fill="#fff"/>
    <path d="M98.14,79.18c-.68.41-1.53.62-2.57.62-1.61,0-2.89-.45-3.82-1.34l.91-.91c.68.72,1.64,1.08,2.89,1.08,1.64,0,2.47-.55,2.47-1.64,0-.81-.51-1.27-1.55-1.36l-1.53-.13c-1.85-.17-2.78-1-2.78-2.49,0-.89.36-1.59,1.08-2.08.62-.44,1.42-.64,2.34-.64,1.42,0,2.53.34,3.34,1l-.89.89c-.64-.49-1.47-.74-2.47-.74-1.38,0-2.08.51-2.08,1.53,0,.81.55,1.26,1.62,1.36l1.49.13c1.83.17,2.74,1,2.74,2.51,0,.96-.4,1.7-1.21,2.21Z" fill="#fff"/>
    <path d="M107.51,79.18c-.68.41-1.53.62-2.57.62-1.61,0-2.89-.45-3.82-1.34l.91-.91c.68.72,1.64,1.08,2.89,1.08,1.64,0,2.47-.55,2.47-1.64,0-.81-.51-1.27-1.55-1.36l-1.53-.13c-1.85-.17-2.78-1-2.78-2.49,0-.89.36-1.59,1.08-2.08.62-.44,1.42-.64,2.34-.64,1.42,0,2.53.34,3.34,1l-.89.89c-.64-.49-1.47-.74-2.47-.74-1.38,0-2.08.51-2.08,1.53,0,.81.55,1.26,1.62,1.36l1.49.13c1.83.17,2.74,1,2.74,2.51,0,.96-.4,1.7-1.21,2.21Z" fill="#fff"/>
    <path d="M111.31,67.75v-1.53h1.53v1.53h-1.53ZM111.38,79.69v-9.29h1.36v9.29h-1.36Z" fill="#fff"/>
    <path d="M122.43,78.37c-.66.96-1.64,1.43-2.96,1.43s-2.3-.47-2.97-1.43c-.55-.81-.83-1.93-.83-3.32s.28-2.51.83-3.32c.66-.96,1.64-1.43,2.97-1.43s2.3.47,2.96,1.43c.55.81.83,1.93.83,3.32s-.28,2.51-.83,3.32ZM119.46,71.49c-1.62,0-2.44,1.19-2.44,3.55s.81,3.55,2.44,3.55,2.44-1.19,2.44-3.55-.81-3.55-2.44-3.55Z" fill="#fff"/>
    <path d="M132.12,79.69v-5.72c0-1.64-.76-2.47-2.29-2.47s-2.3.96-2.3,2.47v5.72h-1.36v-9.29h1.36v1.02c.66-.76,1.53-1.13,2.61-1.13,2.1,0,3.34,1.34,3.34,3.46v5.95h-1.36Z" fill="#fff"/>
    <path d="M142.05,79.69v-.89c-.66.66-1.57,1-2.68,1-2.21,0-3.32-.91-3.32-2.74,0-.91.32-1.59.96-2.06.57-.42,1.32-.62,2.25-.62h2.8v-.89c0-1.36-.79-2.04-2.38-2.04-1.06,0-1.83.36-2.34,1.06l-.93-.85c.41-.55.91-.91,1.46-1.11.47-.17,1.08-.26,1.83-.26,2.48,0,3.72,1.04,3.72,3.1v6.31h-1.36ZM142.05,75.4h-2.61c-1.38,0-2.08.55-2.08,1.64s.72,1.59,2.13,1.59c.96,0,1.64-.21,2.08-.62.32-.3.47-.83.47-1.6v-1Z" fill="#fff"/>
    <path d="M149.04,79.69c-1.51,0-2.36-.94-2.36-2.48v-10.97h1.36v10.92c0,.91.42,1.36,1.25,1.36h.74v1.17h-.98Z" fill="#fff"/>
  </g>
</svg>